<?xml version="1.0" encoding="utf-8"?>
<svg width="104" height="61" viewBox="0 0 104 61" fill="none" xmlns="http://www.w3.org/2000/svg">
  <path d="M79.0295 5.85884L31.3983 19.8199L96.8646 8.75009L99.2963 21.9702L99.2841 21.9722L99.2756 21.9736C98.9286 22.0322 98.5933 22.1164 98.2709 22.2237C95.3253 23.2038 93.4731 26.1164 94.0361 29.1562C94.5953 32.196 97.3746 34.3245 100.492 34.2798C100.833 34.2748 101.179 34.244 101.526 34.1853L101.53 34.1846L101.534 34.1839L101.546 34.1819L104 47.5287L89.2368 50.0247L88.3802 45.3663L98.2875 43.6914L97.3535 38.6144C93.2573 37.5199 89.9677 34.2614 89.1797 29.9772C88.3917 25.6929 90.3204 21.5522 93.7753 19.1808L92.8661 14.2296L49.132 21.6245L84.7023 21.6231L84.7025 35.0471L84.6907 35.047L84.6819 35.047C84.3302 35.047 83.9842 35.0741 83.6472 35.1259C80.5688 35.6009 78.2175 38.1608 78.2175 41.2475C78.2175 44.3341 80.5686 46.8941 83.647 47.3691C83.9841 47.4211 84.3301 47.4481 84.6818 47.4481L84.7021 47.4481L84.702 60.9967L4.89624 61L0.00183105 61L0.000183105 26.3567L0 21.6262L4.89465 21.6263L8.49323 21.6262L82.2795 -1.52588e-05L84.7316 7.68887L80.0507 9.06087L79.0295 5.85884L79.0295 5.85884ZM57.7809 26.3535L4.89526 26.3558L4.89685 56.2697L57.7806 56.2666L57.7806 49.8555C53.7562 48.9552 50.7578 45.4938 50.7578 41.3613C50.758 37.23 53.7565 33.7686 57.7809 32.8685L57.7809 26.3535L57.7809 26.3535ZM61.7175 56.2697L61.7176 50.0847L68.7407 50.0848L68.7407 46.3103L59.9084 46.3103L59.8553 46.3102C59.0004 46.3102 58.1938 46.111 57.4839 45.7582L68.75 39.5221C67.9979 36.1638 65.2286 33.5242 61.7178 32.8241L61.7162 26.3542L79.7687 26.3535L79.7687 31.381C75.935 33.1407 73.2855 36.8974 73.2855 41.2478C73.2854 45.5981 75.9349 49.3549 79.7702 51.1145L79.7702 56.2697L61.7175 56.2697L61.7175 56.2697ZM19.2073 32.6406C14.1826 32.6405 10.1091 36.5455 10.109 41.3631C10.1091 46.1808 14.1826 50.0856 19.2071 50.0847C24.2318 50.0848 28.305 46.1799 28.3051 41.3623C28.3051 36.545 24.2319 32.6396 19.2073 32.6406L19.2073 32.6406ZM44.6923 41.3117C44.6633 38.6027 42.364 36.4151 39.5311 36.4151C36.6987 36.4151 34.3993 38.6027 34.3701 41.3117L34.3701 50.0847L30.4331 50.0847L30.4331 41.3117C30.4622 36.5181 34.5245 32.6406 39.5311 32.6406C44.5383 32.6397 48.6005 36.5172 48.6292 41.3117L48.6292 50.0847L44.6923 50.0847L44.6923 41.3117L44.6923 41.3117ZM63.6363 37.9948L54.9219 42.8182C54.7737 42.358 54.6946 41.8691 54.6946 41.3625C54.6946 38.6299 57.0054 36.4149 59.8553 36.4149C61.3489 36.4149 62.6942 37.0229 63.6363 37.9948L63.6363 37.9948ZM19.207 36.4149C16.357 36.4149 14.0463 38.63 14.0463 41.3625C14.0463 44.0949 16.3569 46.3101 19.2069 46.3101C22.0573 46.3101 24.368 44.0951 24.368 41.3625C24.368 38.6301 22.0574 36.4149 19.207 36.4149L19.207 36.4149Z" fill="#FFFFFF" fill-rule="evenodd" transform="matrix(1 -0 0 1 -0.001 -0)" />
</svg>