<?xml version="1.0" encoding="utf-8"?>
<svg width="95.622" height="61" viewBox="0 0 95.622 61" fill="none" xmlns="http://www.w3.org/2000/svg">
  <g>
    <path d="M0 21.9404L15.9269 21.9404L68.7032 5.81206L69.6745 8.98744L74.1272 7.62663L71.7948 0L0 21.9404Z" fill="#FFFFFF" fill-rule="evenodd" />
    <path d="M4.65628 1.33514e-05L80.5781 0L80.5781 39.0576L4.65628 39.0576L0.000137329 39.0576L0.000137329 4.69206L0 0L4.65628 1.33514e-05L4.65628 1.33514e-05ZM4.65684 4.69204L54.9675 4.69202L54.9675 11.1541C51.1389 12.047 48.2866 15.4803 48.2866 19.5796C48.2866 23.6789 51.1389 27.1122 54.9675 28.005L54.9675 34.3658L4.65684 34.3658L4.65684 4.69204L4.65684 4.69204ZM58.7129 28.2311L58.7129 34.3657L75.8864 34.3657L75.8864 29.2523C72.2377 27.507 69.7172 23.7807 69.7172 19.4656C69.7172 15.1505 72.2377 11.4242 75.8864 9.67883L75.8864 4.69202L58.7129 4.69202L58.7129 11.1095C62.0525 11.804 64.687 14.4229 65.4024 17.754L54.6853 23.9397C55.3605 24.2895 56.1275 24.4872 56.9408 24.4872C56.9579 24.4872 56.9755 24.4871 56.9921 24.4869L56.9918 24.4872L65.3937 24.4872L65.3937 28.231L58.7129 28.2311L58.7129 28.2311ZM79.5724 25.5375C76.6439 25.0663 74.4072 22.5272 74.4072 19.4655C74.4072 16.4038 76.6439 13.8647 79.5724 13.3934C79.8933 13.3421 80.2224 13.3152 80.5572 13.3152L80.5653 13.3152L80.5764 13.3153L80.5764 25.6159L80.5572 25.6159C80.2224 25.6159 79.8933 25.589 79.5724 25.5375L79.5724 25.5375ZM52.2469 21.0232L60.5368 16.2388C59.6405 15.2748 58.3604 14.6718 56.9401 14.6718C54.2287 14.6718 52.0306 16.8689 52.0306 19.5793C52.0306 20.0817 52.1058 20.5668 52.2469 21.0232L52.2469 21.0232Z" fill="#FFFFFF" fill-rule="evenodd" transform="translate(0 21.942)" />
    <path d="M0 12.7213L72.1774 0L74.4907 13.1129L74.4793 13.1149L74.4709 13.1163C74.1411 13.1745 73.8221 13.2579 73.5152 13.3643C70.7133 14.3366 68.9511 17.2255 69.4828 20.2407C70.0151 23.2558 72.6589 25.3681 75.6251 25.3238C75.9495 25.3189 76.278 25.2882 76.608 25.2301L76.612 25.2294L76.6161 25.2286L76.6271 25.2267L78.9615 38.4642L65.3827 40.858L65.342 36.1009L73.5273 34.6581L72.6388 29.6222C68.7421 28.5366 65.6126 25.3044 64.8631 21.055C64.1133 16.8055 65.9483 12.6983 69.2386 10.3461L68.3723 5.43506L26.0324 12.8975L1.86345 12.8975L0 12.7213L0 12.7213Z" fill="#FFFFFF" fill-rule="evenodd" transform="translate(16.66 9.215)" />
    <path d="M8.6554 3.74395C11.35 3.74395 13.5374 5.91379 13.5649 8.60094L13.5649 17.3027L17.31 17.3027L17.31 8.60094C17.2828 3.84607 13.4184 0 8.6554 0C3.89215 0 0.0275879 3.84607 0.000396729 8.60094L0 8.60094L0 17.3027L3.74525 17.3027L3.74525 8.60094L3.74591 8.60094C3.77316 5.91379 5.96068 3.74395 8.6554 3.74395L8.6554 3.74395Z" fill="#FFFFFF" fill-rule="evenodd" transform="translate(28.951 32.871)" />
    <path d="M8.65528 0C3.87514 0 0 3.87338 0 8.65146C0 13.4296 3.87514 17.3027 8.65528 17.3027C13.4351 17.3027 17.3101 13.4296 17.3101 8.65146C17.3101 3.87338 13.4351 0 8.65528 0ZM8.65495 3.74382C5.94396 3.74382 3.74562 5.94107 3.74562 8.65134C3.74562 11.3616 5.94396 13.5588 8.65495 13.5588C11.3667 13.5588 13.5648 11.3616 13.5648 8.65134C13.5648 5.94107 11.3667 3.74382 8.65495 3.74382Z" fill="#FFFFFF" fill-rule="evenodd" transform="translate(9.617 32.871)" />
  </g>
</svg>